<?xml version="1.0" standalone="no"?>
<!DOCTYPE svg PUBLIC "-//W3C//DTD SVG 20010904//EN"
 "http://www.w3.org/TR/2001/REC-SVG-20010904/DTD/svg10.dtd">
<svg version="1.0" xmlns="http://www.w3.org/2000/svg"
 width="261.000000pt" height="261.000000pt" viewBox="0 0 261.000000 261.000000"
 preserveAspectRatio="xMidYMid meet">
<metadata>
Created by potrace 1.14, written by Peter Selinger 2001-2017
</metadata>
<g transform="translate(0.000000,261.000000) scale(0.100000,-0.100000)"
fill="#000000" stroke="none">
<path d="M970 2542 c-19 -9 -38 -21 -42 -27 -4 -5 -8 -6 -8 -2 0 4 -10 -1 -22
-13 -12 -11 -28 -20 -35 -20 -7 0 -13 -4 -13 -10 0 -5 -7 -10 -15 -10 -8 0
-15 -4 -15 -10 0 -5 -4 -10 -10 -10 -11 0 -70 -56 -70 -68 0 -4 -13 -16 -30
-25 -16 -10 -42 -31 -58 -47 -16 -16 -32 -26 -36 -23 -3 4 -6 1 -6 -5 0 -6
-16 -26 -37 -44 -20 -18 -49 -45 -65 -60 -15 -15 -28 -24 -28 -20 0 9 -70 -66
-106 -115 -16 -21 -31 -40 -34 -43 -10 -10 -32 -53 -35 -70 -2 -10 -41 -57
-88 -103 l-84 -86 2 -68 c2 -37 4 -70 5 -73 3 -6 6 -21 9 -35 0 -5 15 -26 31
-45 16 -19 30 -38 30 -42 0 -5 7 -8 15 -8 8 0 15 -4 15 -10 0 -5 41 -50 90
-99 50 -50 90 -86 90 -80 0 6 7 6 20 -1 11 -6 20 -8 20 -4 0 14 50 -52 50 -66
1 -18 34 -60 48 -60 5 0 12 -6 15 -14 4 -9 18 -14 37 -14 32 1 59 -23 60 -53
0 -26 84 -96 111 -93 29 2 72 -42 66 -68 -3 -10 -1 -18 5 -18 5 0 23 -13 38
-30 15 -16 33 -30 39 -30 6 0 11 -5 11 -11 0 -6 5 -7 13 -2 20 13 37 12 37 -2
0 -7 7 -16 15 -19 9 -3 15 -11 14 -18 -4 -19 11 -58 22 -58 6 0 21 -12 34 -26
14 -15 25 -24 25 -21 0 9 75 -15 82 -27 4 -6 8 -20 8 -31 0 -19 65 -85 83 -85
4 0 5 -5 1 -11 -5 -9 1 -10 21 -5 32 8 65 -15 59 -42 -3 -12 10 -27 40 -47 25
-16 46 -34 46 -40 0 -5 4 -4 9 4 7 12 13 12 24 3 7 -7 17 -9 20 -5 4 3 7 -1 7
-10 0 -19 42 -67 59 -67 6 0 11 -4 11 -8 0 -14 50 -36 78 -34 29 1 51 -12 68
-43 6 -11 20 -24 32 -30 12 -5 22 -13 22 -17 0 -5 9 -8 19 -8 11 0 21 -5 23
-11 2 -6 22 -12 43 -13 45 -2 68 -13 59 -27 -3 -5 -2 -9 3 -8 19 3 34 -2 29
-10 -3 -5 24 -9 61 -9 41 0 69 -5 73 -13 5 -7 17 -13 27 -14 10 0 24 -4 31 -9
7 -4 12 -2 12 4 0 6 4 9 9 6 5 -3 14 1 21 9 7 8 16 13 20 10 5 -3 11 -1 15 5
4 6 10 8 14 5 11 -6 101 38 128 64 12 12 27 21 33 21 6 0 8 5 5 10 -3 6 -2 10
4 10 18 0 34 40 21 55 -7 9 -8 14 0 17 5 1 13 14 16 28 8 35 12 164 5 170 -3
3 -20 25 -36 50 -17 25 -34 50 -40 57 -5 6 -20 24 -32 40 -12 16 -44 52 -70
81 -26 28 -57 63 -68 77 -11 14 -29 35 -39 45 -11 11 -17 20 -13 20 4 0 1 14
-8 30 -9 17 -11 30 -7 30 12 0 -28 83 -45 93 -7 4 -13 15 -13 22 0 8 -5 15
-10 15 -7 0 -7 6 0 20 7 14 7 20 0 20 -5 0 -10 18 -10 40 0 22 -4 40 -9 40 -9
0 -27 40 -22 48 1 1 -5 10 -14 18 -8 9 -15 22 -15 31 0 9 -8 23 -17 32 -10 9
-19 31 -21 50 -1 19 -10 41 -20 50 -9 9 -18 23 -20 31 -2 8 -10 21 -19 28 -17
12 -20 20 -26 76 -2 16 -11 35 -21 41 -9 7 -16 20 -16 29 0 10 -4 14 -10 11
-5 -3 -10 1 -10 9 0 9 -6 16 -13 16 -7 0 -21 16 -31 35 -11 19 -23 35 -29 35
-5 0 -7 7 -4 15 4 8 2 17 -2 20 -5 2 -11 14 -14 25 -3 11 -1 18 4 14 5 -3 5 5
0 19 -6 14 -7 28 -3 31 8 9 11 31 12 86 0 76 -1 84 -12 97 -6 7 -8 13 -4 13
10 0 -23 62 -46 87 -27 29 -57 23 -177 -35 -48 -24 -101 -74 -106 -102 -5 -26
-28 -46 -34 -29 -2 6 -13 14 -26 19 -24 9 -115 110 -115 128 0 5 -7 12 -15 16
-8 3 -12 12 -9 21 3 8 1 15 -5 15 -6 0 -11 9 -11 20 0 11 -5 20 -11 20 -6 0
-9 9 -6 20 3 11 2 20 -3 20 -6 0 -7 139 0 165 1 6 2 12 0 15 -1 3 -3 15 -5 26
-3 12 -10 34 -16 50 -7 16 -13 32 -13 35 -1 8 -38 44 -48 45 -4 1 -11 3 -15 4
-5 1 -11 2 -15 1 -5 0 -8 4 -8 9 0 14 -19 11 -60 -8z"/>
</g>
</svg>
